<?xml version="1.0" standalone="no"?><!DOCTYPE svg PUBLIC "-//W3C//DTD SVG 20010904//EN"
 "http://www.w3.org/TR/2001/REC-SVG-20010904/DTD/svg10.dtd"><svg version="1.0" xmlns="http://www.w3.org/2000/svg" width="393.000000pt" height="524.000000pt" viewBox="0 0 393.000000 524.000000" preserveAspectRatio="xMidYMid meet"><g transform="translate(0.000000,524.000000) scale(0.100000,-0.100000)" fill="#000000" stroke="none"><path d="M3226 5213 c-20 -22 -23 -30 -13 -42 10 -12 9 -14 -5 -8 -10 3 -20 2
-23 -2 -7 -12 93 -6 125 7 14 5 32 17 39 26 7 9 19 16 25 16 6 0 20 7 30 15
18 14 12 15 -67 15 -81 0 -88 -2 -111 -27z m119 -3 c-3 -5 -11 -10 -16 -10 -6
0 -7 5 -4 10 3 6 11 10 16 10 6 0 7 -4 4 -10z m-85 -22 c0 -6 -7 -8 -14 -5
-11 4 -13 1 -10 -11 5 -15 4 -15 -6 1 -6 9 -8 21 -5 27 7 11 35 2 35 -12z"/><path d="M3130 5221 c0 -12 29 -41 41 -41 5 0 9 9 9 20 0 13 -5 18 -15 14 -8
-4 -15 -1 -15 5 0 6 -4 11 -10 11 -5 0 -10 -4 -10 -9z"/><path d="M3195 5220 c-3 -5 -2 -10 4 -10 5 0 13 5 16 10 3 6 2 10 -4 10 -5 0
-13 -4 -16 -10z"/><path d="M2132 5123 c-32 -13 -42 -61 -42 -201 0 -134 1 -140 25 -166 24 -26
25 -26 175 -26 147 0 152 1 175 25 24 23 25 28 25 175 0 147 -1 152 -25 175
-23 24 -28 25 -172 24 -81 0 -154 -3 -161 -6z m233 -40 c39 14 44 14 49 0 4
-9 1 -22 -6 -31 -11 -13 -10 -14 10 -8 29 9 29 -10 0 -33 -19 -16 -20 -20 -7
-49 10 -24 16 -28 26 -20 19 16 26 4 18 -31 -7 -32 -31 -58 -43 -47 -4 4 1 12
11 17 9 6 17 15 17 21 0 7 -7 5 -17 -4 -23 -18 -69 -38 -91 -38 -27 0 -112
-47 -140 -77 -17 -19 -27 -24 -30 -15 -2 8 5 20 17 28 12 8 21 19 21 25 0 5 9
18 20 29 31 31 24 47 -8 17 -27 -26 -72 -37 -72 -17 0 6 7 10 15 10 8 0 26 13
40 28 19 22 34 28 71 30 26 1 53 7 60 13 32 26 5 92 -42 103 -25 7 -124 -24
-148 -46 -13 -11 -26 -10 -26 2 0 5 12 13 26 16 19 5 22 9 13 15 -16 9 -20 7
61 46 60 29 67 30 88 16 21 -13 29 -13 67 0z m-114 -113 c10 -6 19 -18 19 -27
0 -14 -2 -14 -14 2 -9 13 -32 21 -67 26 l-54 6 48 2 c27 0 57 -4 68 -9z"/><path d="M2596 5043 c-9 -10 -36 -72 -36 -84 0 -5 7 -9 15 -9 18 0 18 -8 0
-40 -23 -40 -18 -50 20 -50 35 0 51 23 23 32 -10 4 -10 10 0 32 16 36 15 56
-3 56 -14 0 -14 3 -1 29 18 33 5 56 -18 34z"/><path d="M2655 4983 c-14 -131 -16 -138 -58 -141 -24 -2 -37 -8 -37 -18 0 -18
99 -20 104 -1 3 6 8 26 12 42 l7 30 9 -42 c11 -52 44 -61 54 -15 10 47 11 48
19 10 4 -24 13 -38 22 -38 11 0 14 7 10 28 -3 15 -11 69 -18 120 -10 74 -16
92 -28 90 -12 -2 -17 -20 -21 -70 -5 -71 -20 -105 -20 -45 0 20 -4 39 -10 42
-5 3 -10 22 -10 41 0 23 -5 34 -14 34 -10 0 -16 -19 -21 -67z"/><path d="M2850 5040 c0 -5 -7 -10 -15 -10 -8 0 -15 -7 -15 -15 0 -8 7 -15 15
-15 16 0 21 -16 6 -22 -14 -5 -26 -168 -12 -168 6 0 11 19 11 47 0 25 3 44 6
41 3 -3 5 -24 6 -47 0 -28 5 -41 14 -41 11 0 14 21 14 95 0 78 3 95 15 95 8 0
15 7 15 15 0 8 -7 15 -15 15 -8 0 -15 5 -15 10 0 6 -7 10 -15 10 -8 0 -15 -4
-15 -10z"/><path d="M2933 5043 c-7 -3 -13 -11 -13 -18 0 -7 6 -16 13 -19 10 -5 10 -7 0
-12 -23 -11 -13 -24 18 -24 18 0 28 -4 24 -10 -4 -6 -16 -10 -28 -8 -20 3 -22
-2 -25 -49 l-3 -53 70 0 71 0 0 56 c0 55 -1 56 -25 52 -14 -3 -25 -1 -25 3 0
5 11 9 25 9 27 0 32 9 13 28 -9 9 -9 12 0 12 13 0 17 29 5 31 -29 4 -110 6
-120 2z m72 -43 c-3 -5 -10 -10 -16 -10 -5 0 -9 5 -9 10 0 6 7 10 16 10 8 0
12 -4 9 -10z m-25 -74 c0 -3 -4 -8 -10 -11 -5 -3 -10 -1 -10 4 0 6 5 11 10 11
6 0 10 -2 10 -4z m50 0 c0 -3 -4 -8 -10 -11 -5 -3 -10 -1 -10 4 0 6 5 11 10
11 6 0 10 -2 10 -4z m-50 -40 c0 -3 -4 -8 -10 -11 -5 -3 -10 -1 -10 4 0 6 5
11 10 11 6 0 10 -2 10 -4z m50 0 c0 -3 -4 -8 -10 -11 -5 -3 -10 -1 -10 4 0 6
5 11 10 11 6 0 10 -2 10 -4z"/><path d="M3190 5030 c0 -17 -7 -20 -45 -20 l-45 0 0 -65 0 -65 45 0 c45 0 45
0 45 -35 0 -28 4 -35 19 -35 15 0 21 8 23 33 3 30 6 32 43 35 49 4 55 13 55
79 l0 52 -47 3 c-39 2 -48 6 -47 21 1 12 -5 17 -22 17 -17 0 -24 -6 -24 -20z
m0 -85 c0 -31 -3 -35 -25 -35 -22 0 -25 4 -25 35 0 31 3 35 25 35 22 0 25 -4
25 -35z m100 0 c0 -32 -2 -35 -30 -35 -27 0 -29 3 -28 35 1 31 4 35 30 35 25
0 28 -3 28 -35z"/><path d="M3443 5036 c5 -12 -5 -16 -40 -18 -49 -3 -71 -25 -35 -35 12 -3 26
-19 31 -36 6 -17 19 -39 28 -49 15 -17 15 -19 -3 -32 -10 -8 -32 -17 -47 -20
-20 -4 -28 -11 -25 -23 4 -22 40 -19 86 7 31 19 33 19 65 0 45 -26 81 -29 85
-7 3 12 -5 19 -25 23 -15 3 -37 12 -47 20 -18 13 -18 15 -3 32 9 10 22 32 28
49 5 17 19 33 30 36 10 3 19 12 19 21 0 13 -11 16 -50 16 -36 0 -52 4 -56 15
-4 8 -15 15 -26 15 -13 0 -18 -5 -15 -14z m54 -88 c-7 -18 -20 -33 -27 -33 -7
0 -20 15 -27 33 l-13 32 40 0 40 0 -13 -32z"/><path d="M3620 4924 c0 -114 2 -125 18 -122 9 2 19 14 20 27 2 13 13 32 25 41
20 16 22 16 37 -2 15 -19 16 -19 34 0 17 20 18 20 37 1 23 -23 24 -29 4 -29
-8 0 -15 -9 -15 -20 0 -24 27 -27 55 -6 17 12 19 28 20 125 l1 111 -118 0
-118 0 0 -126z m195 29 c0 -49 -3 -60 -12 -50 -10 9 -10 22 -2 50 10 37 6 57
-12 57 -5 0 -9 -8 -9 -17 -1 -17 -1 -17 -11 0 -5 9 -21 17 -34 17 -17 0 -25
-6 -25 -17 -1 -17 -2 -17 -15 1 -7 10 -18 15 -24 11 -6 -3 -11 -1 -11 5 0 7
26 10 78 8 l77 -3 0 -62z m-144 -51 c-8 -13 -10 -5 -10 33 1 48 1 49 10 17 6
-21 6 -39 0 -50z m74 9 c-10 -26 -27 4 -19 34 l7 29 9 -24 c5 -13 6 -30 3 -39z"/><path d="M2892 4898 l3 -82 32 -3 c17 -2 34 1 38 7 11 18 -4 25 -24 13 -11 -7
-22 -9 -25 -6 -3 4 -6 39 -6 80 0 44 -4 73 -10 73 -7 0 -10 -30 -8 -82z"/><path d="M3016 4825 c4 -8 15 -15 25 -15 12 0 16 5 13 15 -4 8 -15 15 -25 15
-12 0 -16 -5 -13 -15z"/><path d="M760 4801 c-45 -24 -74 -57 -75 -85 -1 -12 -26 -63 -56 -111 -38 -64
-54 -99 -54 -124 0 -28 -4 -36 -19 -36 -13 0 -25 -19 -46 -76 -32 -89 -187
-362 -201 -354 -5 4 -9 28 -9 56 0 27 -4 49 -10 49 -5 0 -10 -8 -11 -17 0 -10
-5 -52 -11 -93 -14 -108 -14 -157 1 -226 18 -85 26 -95 51 -64 35 45 110 175
122 210 6 19 14 44 19 55 4 11 10 33 14 48 3 16 16 51 29 77 13 27 26 60 30
73 5 20 14 27 46 32 23 4 54 14 71 22 46 23 45 10 -1 -22 -75 -52 -108 -125
-90 -196 12 -42 52 -84 75 -75 24 9 29 35 11 55 -9 10 -19 42 -23 70 -4 34 -9
48 -14 39 -6 -9 -9 -9 -9 -1 0 16 30 45 44 40 6 -2 18 -26 27 -53 13 -38 23
-51 45 -59 16 -5 30 -10 32 -11 7 -3 -37 -91 -52 -103 -17 -15 -22 -61 -6 -61
5 0 26 -24 46 -54 20 -30 42 -57 49 -60 19 -7 60 60 80 130 48 170 77 253 96
270 21 19 21 19 14 -21 -4 -22 -12 -45 -17 -52 -6 -7 2 -21 24 -42 18 -17 36
-31 40 -31 16 0 37 48 48 110 6 36 18 88 25 115 20 71 24 140 9 159 -10 14
-13 7 -23 -45 -12 -70 -15 -76 -33 -62 -7 6 -26 13 -41 17 -26 6 -27 5 -18
-13 6 -11 8 -28 4 -38 -6 -17 -113 -173 -119 -173 -2 0 4 21 13 46 19 57 9 71
-60 80 -43 6 -51 4 -76 -20 -18 -18 -31 -24 -35 -17 -4 6 -21 11 -37 11 -41 0
-30 14 39 50 31 16 68 36 82 44 14 7 37 19 53 27 29 13 36 29 12 29 -8 0 -15
4 -15 9 0 10 49 -2 81 -19 10 -5 21 -4 28 3 6 6 11 8 11 3 0 -4 7 -1 15 8 23
23 18 44 -27 120 -50 85 -106 154 -130 162 -10 3 -18 8 -18 12 0 12 80 57 95
54 20 -4 29 16 15 33 -7 9 -9 22 -5 32 5 10 7 22 6 27 -1 4 3 14 9 21 30 36
-108 48 -170 16z m1 -302 c22 -12 79 -86 79 -104 0 -9 -166 -95 -185 -95 -3 0
-24 -14 -47 -30 -23 -17 -43 -28 -45 -26 -3 2 6 23 19 47 13 23 39 73 59 111
55 105 75 121 120 97z m38 -333 c9 -11 8 -22 -6 -50 l-17 -37 -19 37 c-19 36
-19 38 -1 51 23 16 29 16 43 -1z m-484 -176 c3 -5 1 -10 -4 -10 -6 0 -11 5
-11 10 0 6 2 10 4 10 3 0 8 -4 11 -10z"/><path d="M1200 4608 c-15 -68 -19 -145 -24 -454 -3 -203 -7 -256 -19 -281 -17
-31 -53 -57 -189 -133 -79 -44 -100 -65 -35 -34 36 17 37 17 77 -10 22 -15 38
-31 35 -36 -20 -33 153 22 207 65 l35 28 7 131 c3 72 10 183 16 246 12 150 13
389 1 371 -5 -8 -7 -20 -4 -28 3 -7 0 -13 -6 -13 -6 0 -11 5 -11 11 0 5 -4 8
-9 5 -5 -3 -24 0 -41 8 -20 8 -27 15 -19 18 14 5 15 4 -20 72 -2 5 3 7 12 3 8
-3 18 0 21 8 3 9 0 12 -10 8 -17 -6 -19 18 -2 35 9 9 9 15 1 23 -8 8 -14 -4
-23 -43z m20 -138 c0 -5 -5 -10 -11 -10 -5 0 -7 5 -4 10 3 6 8 10 11 10 2 0 4
-4 4 -10z m81 -39 c-8 -5 -20 -7 -28 -4 -21 8 -15 13 15 13 20 0 23 -3 13 -9z"/><path d="M3903 4425 c0 -38 2 -53 4 -32 2 20 2 52 0 70 -2 17 -4 1 -4 -38z"/><path d="M1500 4411 c0 -11 -4 -23 -10 -26 -5 -3 -10 -11 -10 -16 0 -6 5 -7
10 -4 13 8 13 -21 0 -46 -13 -24 -2 -25 16 -1 9 11 13 13 14 4 0 -7 5 -10 11
-7 7 5 4 14 -8 27 -17 19 -17 20 15 46 32 27 40 42 22 42 -5 0 -10 -7 -10 -15
0 -8 -7 -15 -15 -15 -8 0 -15 7 -15 15 0 8 -4 15 -10 15 -5 0 -10 -9 -10 -19z"/><path d="M1567 4390 c-16 -17 -22 -27 -13 -24 13 5 16 -2 16 -37 0 -23 3 -40
6 -37 10 11 11 43 3 66 -7 18 -6 23 3 19 7 -2 14 -10 14 -18 1 -8 2 -20 3 -26
0 -7 6 -13 13 -13 9 0 9 3 0 12 -7 7 -8 17 -2 29 7 12 5 19 -6 23 -13 5 -14 9
-4 21 23 28 -5 15 -33 -15z"/><path d="M3900 4325 c-1 -5 -3 -51 -4 -101 -1 -65 -6 -98 -18 -116 -15 -23
-15 -26 0 -41 14 -15 14 -18 -4 -39 l-19 -23 22 19 22 18 0 -56 c-1 -32 2 -60
5 -63 11 -11 15 337 5 382 -4 17 -8 26 -9 20z m-8 -237 c-8 -8 -9 -4 -5 13 4
13 8 18 11 10 2 -7 -1 -18 -6 -23z"/><path d="M1537 4238 c-3 -22 -15 -54 -27 -70 l-22 -30 22 12 c24 13 50 67 50
105 0 41 -17 29 -23 -17z"/><path d="M1576 4225 c-9 -13 -16 -28 -16 -32 1 -18 38 -55 49 -49 7 5 1 16
-17 32 l-27 24 23 19 c23 20 28 31 13 31 -5 0 -16 -11 -25 -25z"/><path d="M1502 4228 c-14 -14 -16 -28 -3 -28 9 0 24 30 18 36 -2 2 -9 -2 -15
-8z"/><path d="M1564 4080 c3 -41 0 -60 -13 -74 -15 -18 -15 -18 7 -7 18 10 26 10
38 0 8 -6 18 -9 22 -5 4 4 -1 12 -11 18 -17 9 -17 11 -2 34 8 13 11 24 6 24
-5 0 -13 -6 -17 -12 -5 -8 -13 4 -21 32 l-13 45 4 -55z"/><path d="M1590 4115 c0 -15 18 -40 24 -34 3 3 -1 14 -9 25 -8 10 -14 15 -15 9z"/><path d="M1520 4089 c0 -15 -5 -19 -15 -15 -12 4 -13 2 -3 -14 10 -15 10 -22
0 -32 -17 -17 -15 -33 3 -18 8 6 18 9 23 6 4 -2 9 17 9 45 0 27 -3 49 -8 49
-5 0 -9 -9 -9 -21z"/><path d="M2338 4076 c-61 -22 -87 -43 -83 -66 2 -11 0 -20 -6 -20 -5 0 -9 -6
-9 -14 0 -8 -7 -16 -15 -20 -15 -5 -55 -64 -55 -80 0 -5 12 1 26 15 25 23 24
21 -5 -22 -35 -53 -40 -70 -13 -46 10 10 21 15 24 12 3 -3 11 1 18 10 8 10 9
15 1 15 -6 0 -11 -5 -11 -12 0 -6 -3 -8 -7 -5 -9 10 57 77 76 77 9 0 2 -10
-16 -22 -35 -25 -45 -45 -14 -28 33 17 32 11 -4 -22 -19 -18 -52 -67 -74 -108
-39 -71 -53 -83 -31 -24 20 53 -7 46 -33 -8 -14 -29 -26 -45 -26 -35 -1 23
-18 22 -26 -2 -3 -12 -19 -21 -41 -26 -34 -6 -38 -12 -89 -118 -81 -171 -146
-261 -242 -337 -45 -36 -94 -72 -110 -80 -59 -31 -235 -129 -241 -135 -4 -3 2
-3 12 1 16 6 17 4 7 -14 -6 -12 -17 -20 -24 -18 -6 1 -8 1 -4 -2 16 -8 -54
-71 -72 -65 -13 5 -13 3 -4 -7 9 -10 8 -16 -3 -28 -8 -8 -13 -16 -10 -19 5 -6
52 24 86 54 14 13 39 30 56 38 36 17 72 54 42 42 -10 -3 -18 -2 -18 3 0 6 13
10 28 10 15 0 34 6 41 13 10 9 15 9 18 0 3 -9 15 -8 46 3 60 20 147 65 147 75
0 5 7 6 15 3 11 -4 13 -2 9 9 -3 9 -12 18 -20 21 -10 4 -12 2 -8 -6 4 -7 3 -8
-5 -4 -6 4 -40 -6 -74 -22 -35 -17 -76 -33 -92 -36 -23 -5 -17 0 20 19 28 14
49 30 47 36 -1 6 6 8 19 4 16 -5 19 -4 14 5 -5 9 -4 11 4 6 11 -7 101 38 101
50 0 3 -16 -3 -36 -15 -41 -25 -44 -25 -44 -8 0 7 18 25 41 40 43 29 59 33 59
17 0 -21 26 -8 74 38 52 48 42 32 -32 -50 -29 -33 -40 -52 -35 -65 5 -13 8
-14 11 -2 8 26 34 48 50 42 12 -5 14 -2 9 11 -5 11 -3 15 5 10 7 -4 25 9 45
32 18 21 33 34 33 28 0 -7 -21 -35 -46 -63 -51 -56 -49 -69 3 -19 19 18 33 26
33 18 0 -7 -18 -30 -40 -51 -22 -21 -40 -44 -40 -52 0 -17 -73 -97 -88 -97 -7
0 -12 -4 -12 -9 0 -5 -10 -11 -23 -15 -12 -3 -32 -15 -45 -26 -23 -22 -47 -18
-38 6 3 8 0 14 -7 14 -7 1 10 21 37 45 28 25 47 45 44 45 -13 0 -103 -49 -90
-50 17 0 15 -20 -3 -20 -8 0 -15 6 -15 13 0 11 -9 11 -43 3 -47 -10 -87 -55
-87 -96 0 -12 -9 -24 -22 -29 -22 -9 -22 -9 7 -17 29 -8 30 -8 6 -14 -14 -3
-27 -12 -29 -19 -4 -11 5 -13 40 -8 37 5 46 3 56 -14 8 -13 19 -18 31 -14 12
3 21 0 24 -10 7 -17 32 -11 62 16 24 22 71 40 108 43 31 2 32 0 12 -34 -21
-37 -18 -46 8 -24 54 48 57 42 5 -11 -32 -31 -58 -65 -58 -74 0 -9 -6 -23 -12
-30 -11 -11 -9 -11 10 -2 49 26 17 1 -58 -45 -44 -26 -76 -51 -70 -54 6 -3 4
-16 -5 -33 -8 -17 -10 -27 -3 -27 6 0 8 -10 4 -26 -5 -20 0 -32 25 -59 42 -44
66 -50 73 -18 6 22 8 22 22 8 9 -9 14 -19 10 -22 -3 -3 3 -12 14 -20 11 -8 20
-23 20 -34 0 -10 5 -19 11 -19 5 0 7 -5 3 -11 -4 -6 15 1 42 17 46 26 103 79
104 97 0 4 11 24 25 44 24 36 46 47 73 38 20 -7 -11 -59 -72 -121 -50 -51 -64
-74 -24 -37 10 9 18 12 18 7 0 -5 -31 -41 -70 -79 -66 -66 -138 -155 -125
-155 4 0 -7 -11 -24 -25 -29 -25 -29 -26 -13 -55 21 -37 32 -38 32 -5 0 26 7
38 44 75 25 25 28 25 61 -5 26 -25 28 -25 40 -8 8 11 10 24 4 34 -6 11 0 28
20 55 27 38 45 74 36 74 -2 0 -43 -31 -91 -70 -78 -62 -104 -79 -104 -66 0 2
33 28 73 58 88 66 175 152 217 213 17 25 33 45 36 45 8 0 -17 -43 -40 -70 -12
-14 -30 -38 -40 -53 -17 -28 -17 -28 2 -18 11 6 22 16 25 23 2 7 11 -4 20 -24
22 -51 31 -48 23 9 -3 25 -4 44 -1 41 10 -9 47 -140 56 -198 5 -30 11 -66 14
-80 16 -99 46 -215 65 -251 20 -38 132 -179 141 -179 5 0 9 -7 9 -15 0 -9 7
-18 15 -21 8 -4 15 -13 15 -22 0 -13 2 -14 13 -3 10 11 10 14 0 18 -7 3 -13
12 -13 21 1 15 2 15 14 0 13 -18 32 -26 22 -10 -2 4 4 14 15 20 18 12 19 11
11 -5 -16 -29 -93 -113 -103 -113 -6 0 -7 5 -4 10 3 6 -1 10 -9 10 -10 0 -13
6 -10 15 4 8 10 13 14 10 5 -3 3 6 -3 20 -7 14 -18 23 -24 20 -9 -3 -13 5 -13
24 0 38 -37 71 -80 71 -20 0 -46 10 -67 26 -37 28 -41 25 -17 -11 21 -32 10
-65 -22 -65 -23 0 -24 -1 -9 -24 9 -13 15 -28 13 -32 -1 -5 6 -22 16 -37 24
-36 34 -126 15 -138 -11 -6 -10 -9 4 -15 20 -7 21 -28 6 -73 -10 -28 -15 -32
-43 -29 -27 3 -31 6 -28 28 2 14 4 37 5 52 1 17 11 32 25 39 27 15 27 22 1 58
-12 16 -18 34 -15 40 4 6 1 11 -6 11 -8 0 -21 8 -29 18 -33 36 -80 72 -95 72
-14 0 -14 -3 -4 -15 19 -23 3 -18 -19 6 -11 12 -17 27 -14 35 3 8 -1 14 -11
14 -9 0 -16 5 -16 11 0 6 -11 25 -25 43 -49 65 -128 202 -155 271 -15 39 -31
70 -36 69 -18 -1 -120 -164 -104 -164 5 0 15 8 22 18 7 10 19 22 27 27 12 7
13 -1 8 -43 -4 -36 -2 -52 5 -52 6 0 20 -7 30 -17 12 -10 18 -12 18 -4 0 17
61 10 71 -9 21 -38 49 -105 49 -116 0 -7 6 -15 13 -18 8 -3 5 -11 -12 -25 -13
-12 -19 -21 -15 -21 5 -1 -3 -8 -18 -16 -26 -14 -33 -25 -29 -48 1 -5 -6 -18
-16 -29 -13 -14 -15 -21 -5 -24 41 -15 -17 -45 -62 -32 -20 6 -34 5 -45 -4
-12 -9 -13 -9 -7 0 5 9 2 11 -7 7 -25 -9 -13 -74 23 -139 24 -42 28 -56 15
-45 -10 8 -16 10 -12 3 4 -6 1 -14 -5 -16 -7 -3 -3 -6 10 -6 21 -1 27 -10 23
-40 -2 -7 3 -10 8 -6 12 7 71 -43 71 -60 0 -5 -7 -1 -15 9 -15 19 -15 19 -15
-2 0 -12 -9 -27 -20 -34 -21 -13 -27 -38 -10 -38 20 0 10 -28 -12 -34 -19 -5
-20 -8 -8 -16 12 -7 6 -13 -25 -26 -35 -15 -38 -18 -20 -25 17 -6 16 -7 -8 -6
-17 1 -26 6 -23 14 3 7 -1 18 -8 25 -15 16 -20 92 -5 83 6 -4 8 5 4 24 -4 23
-1 33 10 37 8 4 15 12 15 20 0 8 4 14 10 14 5 0 7 7 4 15 -4 8 -1 15 5 15 6 0
11 4 11 8 0 5 -19 8 -42 8 -32 -1 -43 3 -43 14 -1 8 -7 26 -14 39 -7 13 -8 21
-3 17 26 -16 19 17 -13 65 -19 30 -38 69 -41 87 -15 79 10 221 60 334 11 27
13 39 4 44 -7 5 -8 2 -3 -7 5 -8 4 -11 0 -7 -5 5 -9 19 -11 32 -2 17 2 23 14
22 21 -1 17 31 -6 58 -11 13 -12 17 -3 11 9 -5 12 -4 7 3 -8 13 6 40 47 95 16
20 30 43 31 50 1 6 8 22 15 35 10 20 9 33 -13 90 -14 37 -35 100 -46 140 -25
82 -53 110 -70 70 -10 -21 -10 -21 -5 5 4 18 2 26 -4 22 -6 -3 -9 -31 -6 -68
3 -43 0 -71 -10 -91 -14 -27 -22 -156 -9 -156 3 0 14 5 25 10 15 8 19 7 19 -4
0 -8 -6 -17 -12 -20 -7 -3 0 -4 15 -2 20 2 27 0 23 -9 -2 -7 4 -21 15 -31 25
-22 25 -24 -13 -82 -18 -28 -45 -71 -60 -96 -25 -42 -30 -46 -49 -36 -30 17
-38 2 -10 -19 l23 -18 -20 -39 c-10 -21 -29 -68 -41 -104 -12 -36 -25 -72 -28
-80 -3 -8 -8 -35 -9 -60 -5 -70 -27 -160 -39 -160 -6 0 -18 12 -27 28 l-17 27
-2 -25 c-3 -37 -3 -42 4 -83 5 -33 4 -38 -10 -32 -15 5 -15 4 -1 -12 8 -10 19
-47 22 -83 4 -36 16 -120 27 -187 10 -68 19 -146 19 -175 0 -29 4 -69 10 -88
7 -23 6 -36 -1 -41 -7 -4 -5 -9 6 -12 11 -5 14 -3 9 6 -4 6 5 1 19 -12 15 -14
24 -27 21 -30 -3 -3 -9 1 -13 8 -6 9 -11 10 -15 2 -5 -7 -14 -4 -28 9 -23 21
-46 17 -27 -6 9 -11 8 -14 -4 -14 -8 0 -18 6 -21 13 -4 6 -4 2 -2 -10 3 -15 0
-20 -10 -16 -8 3 -14 15 -14 27 0 12 -7 32 -16 44 -13 19 -27 126 -25 205 0
14 -42 67 -54 67 -1 0 -1 -17 -1 -39 1 -29 -2 -37 -13 -33 -10 4 -12 1 -6 -9
12 -18 7 -62 -10 -102 -12 -27 -21 -24 -16 5 0 4 -6 5 -14 2 -19 -8 -19 -9 2
-41 12 -19 14 -28 6 -30 -7 -3 -9 -11 -6 -19 6 -17 -19 -19 -48 -3 -13 6 -18
17 -14 28 3 9 -2 26 -11 37 -9 11 -14 13 -11 4 2 -8 -8 -24 -22 -36 -17 -15
-21 -22 -11 -22 41 3 52 -2 47 -21 -3 -13 3 -22 20 -30 30 -14 36 -14 28 -1
-3 6 -2 10 4 10 13 0 8 -120 -7 -146 -10 -17 -11 -17 -12 -1 0 9 -5 17 -11 17
-5 0 -7 6 -3 13 5 9 4 9 -6 0 -11 -10 -11 -18 -2 -38 7 -14 12 -32 12 -40 0
-23 -28 -18 -41 7 -8 14 -14 18 -17 10 -2 -6 -13 -12 -25 -11 -12 0 -16 3 -9
6 6 2 12 11 12 18 0 7 3 15 8 18 4 2 1 2 -6 1 -20 -6 -27 27 -9 41 18 13 23
45 8 45 -5 0 -11 -7 -13 -16 -2 -10 -15 -18 -33 -20 l-30 -3 0 70 c1 39 -3 73
-7 75 -13 8 -9 18 18 52 15 17 31 29 37 25 6 -3 7 -1 3 5 -6 11 6 17 27 13 4
-1 21 5 36 14 26 13 30 13 35 -2 4 -9 1 -20 -6 -24 -10 -7 -10 -12 3 -25 15
-14 17 -13 28 16 8 24 15 31 27 26 14 -5 15 -4 4 9 -14 17 -35 21 -25 5 3 -5
-1 -10 -9 -10 -9 0 -16 6 -16 13 0 6 -11 17 -24 23 -18 8 -23 8 -20 0 5 -14
-72 -47 -92 -39 -9 3 -14 -2 -14 -16 0 -25 -17 -28 -22 -3 -2 9 3 23 12 30 12
11 11 11 -10 1 -14 -6 -35 -23 -47 -38 -18 -21 -22 -23 -23 -8 0 9 5 17 11 17
5 0 8 4 5 9 -7 11 28 43 37 34 4 -3 7 6 7 21 0 19 6 29 20 33 21 5 28 23 10
23 -7 0 -7 6 0 20 6 12 7 20 1 20 -19 0 -59 -61 -112 -167 l-54 -108 -7 60
c-4 33 -11 109 -15 169 -8 106 -9 108 -23 80 -8 -16 -23 -35 -33 -42 -11 -9
-16 -21 -12 -33 4 -11 0 -26 -10 -35 -15 -15 -15 -14 -10 12 5 22 4 26 -4 14
-11 -16 -5 -67 10 -86 5 -6 6 -14 3 -17 -4 -3 1 -24 10 -46 8 -22 13 -48 9
-57 -3 -9 -1 -19 4 -23 13 -8 26 -61 15 -61 -4 0 -6 -16 -4 -36 4 -30 -4 -48
-54 -120 -63 -92 -148 -179 -164 -169 -6 4 -21 1 -33 -7 -12 -7 -29 -12 -37
-12 -8 1 -21 2 -29 3 -15 1 30 41 47 41 5 0 15 7 22 15 11 13 8 15 -16 16 -16
1 -33 1 -38 0 -5 -1 -3 5 4 14 7 8 10 18 6 22 -3 3 -6 2 -6 -4 0 -6 -7 -14
-16 -17 -11 -4 -15 -2 -11 8 4 11 1 13 -10 9 -11 -5 -14 -3 -8 6 5 9 2 12 -11
9 -11 -2 -17 -7 -16 -12 2 -5 -2 -13 -10 -17 -17 -12 -31 -11 -23 0 3 5 0 13
-6 17 -8 4 -9 3 -5 -4 4 -7 2 -12 -5 -12 -8 0 -7 -5 2 -17 13 -15 12 -15 -8
-4 -15 8 -22 20 -21 36 1 14 6 25 10 25 4 0 4 8 1 18 -6 14 -4 15 9 4 13 -11
15 -8 12 17 -3 22 1 31 14 34 16 4 16 5 -1 6 -10 0 -20 -6 -24 -15 -5 -13 -7
-13 -14 -2 -7 10 -11 10 -17 0 -7 -9 -13 -8 -27 8 -10 11 -15 23 -11 27 4 4
11 1 16 -7 8 -12 11 -13 22 -2 11 11 10 15 -3 25 -9 7 -14 17 -12 24 2 6 -1
14 -6 18 -6 3 -11 -1 -11 -10 0 -9 -4 -14 -9 -11 -5 3 -12 -6 -15 -19 -4 -15
-11 -23 -17 -19 -6 4 -7 9 -3 13 5 3 8 13 8 21 -1 8 -2 21 -3 28 0 6 -6 12
-13 12 -6 0 -8 -3 -5 -7 8 -7 -11 -33 -25 -33 -5 0 -7 3 -4 8 2 4 -2 16 -10
26 -13 18 -14 18 -22 -5 -5 -13 -9 -85 -8 -159 1 -132 1 -135 24 -138 14 -2
25 3 30 15 4 10 14 18 22 19 8 1 25 4 38 8 17 6 22 3 22 -9 0 -16 -46 -65 -61
-65 -5 0 -6 -6 -3 -14 4 -10 -2 -12 -21 -9 -14 3 -28 9 -31 14 -17 29 -24 -4
-24 -116 l0 -125 895 0 c800 0 895 2 895 15 0 10 7 15 18 13 9 -2 16 3 15 9
-2 8 7 13 21 13 13 0 29 7 36 15 7 8 18 15 24 15 7 0 23 12 37 26 20 21 79 57
99 59 3 1 25 10 50 22 68 31 97 41 200 64 52 12 106 28 118 36 13 8 26 12 29
9 10 -10 -211 -104 -230 -98 -4 1 -23 -9 -41 -23 -18 -14 -36 -25 -41 -25 -20
0 -162 -75 -177 -94 -17 -20 -18 -20 -18 -1 0 22 -11 12 -28 -27 l-11 -28
1019 0 1020 0 0 832 c0 685 -2 834 -14 847 -25 30 -113 216 -125 264 -6 26
-28 80 -47 120 -82 162 -86 171 -75 175 16 5 13 22 -4 22 -15 0 -40 48 -30 58
3 3 5 0 5 -8 0 -10 3 -10 18 1 14 11 15 11 5 -1 -17 -18 -16 -30 1 -30 8 0 16
10 20 23 3 12 19 30 36 40 17 11 27 23 24 29 -5 8 -1 9 10 5 12 -5 16 -3 13 5
-2 7 -10 14 -18 14 -8 1 -20 2 -27 3 -7 0 -10 6 -6 12 3 6 17 9 30 6 36 -7 30
6 -33 64 -32 29 -52 49 -45 45 13 -8 16 3 6 28 -3 9 -10 14 -14 11 -10 -6 -24
31 -16 44 3 5 -1 12 -10 15 -22 8 -22 8 -27 -11 -4 -14 -5 -13 -6 4 -2 33 -32
92 -50 98 -9 3 -25 23 -35 45 -11 22 -30 47 -42 55 -13 8 -30 28 -39 45 -16
30 -66 69 -150 115 -97 52 -189 115 -207 140 -4 5 -8 6 -8 1 0 -5 -6 -3 -14 4
-8 6 -12 18 -9 26 4 12 15 6 47 -24 38 -37 127 -96 204 -136 l30 -16 -5 31
c-3 18 -21 49 -45 73 -36 37 -78 103 -78 123 0 16 80 -72 91 -101 7 -17 19
-35 26 -39 7 -4 13 -16 13 -26 0 -10 6 -33 13 -50 12 -28 15 -30 26 -17 8 9
17 13 22 10 5 -3 14 -2 20 2 7 4 1 16 -16 34 -19 20 -27 40 -30 79 -3 29 -12
69 -22 89 -18 38 -113 138 -194 203 -36 30 -51 54 -83 130 -68 163 -163 342
-215 405 -88 109 -201 166 -321 164 -36 -1 -85 1 -110 5 -28 3 -60 0 -82 -9z
m335 -414 c35 -71 36 -112 5 -113 -34 0 -141 -42 -145 -56 -3 -9 14 -6 53 7
68 24 110 25 118 5 4 -12 -6 -15 -63 -15 -50 0 -72 -4 -81 -15 -12 -14 -5 -15
60 -12 65 4 71 3 55 -9 -10 -8 -14 -14 -8 -14 6 0 16 7 23 15 16 19 30 19 30
0 0 -9 6 -28 14 -44 13 -25 13 -33 -7 -87 -13 -32 -31 -75 -42 -94 -24 -44
-23 -40 -15 -127 6 -67 10 -76 46 -113 28 -29 38 -47 36 -65 -4 -31 6 -32 18
-2 7 17 8 12 4 -18 -4 -22 -11 -48 -16 -58 -14 -26 1 -36 18 -13 17 24 17 17
-1 -59 -18 -74 -18 -100 0 -60 14 29 14 29 15 5 l1 -25 14 25 c14 24 20 16 16
-17 -3 -21 10 -15 40 17 23 23 29 26 29 12 -1 -9 -7 -28 -15 -42 -8 -14 -14
-29 -14 -35 0 -17 27 37 44 88 9 26 21 47 26 47 5 0 9 7 9 15 0 9 7 18 15 21
8 4 15 18 15 32 0 29 15 20 23 -13 5 -19 5 -19 12 3 10 30 30 23 30 -10 0 -16
4 -24 11 -21 7 2 15 -1 19 -7 3 -6 1 -9 -6 -8 -6 2 -14 -3 -16 -10 -3 -8 1
-10 11 -6 17 7 19 1 10 -33 -3 -11 -14 -23 -25 -26 -12 -3 -17 -11 -13 -21 4
-11 -3 -19 -23 -27 -15 -6 -36 -15 -45 -20 -26 -13 -22 4 8 32 22 21 24 21 18
4 -4 -11 7 -2 23 20 22 30 26 41 16 43 -16 4 -58 -31 -76 -64 -50 -90 -61
-114 -65 -149 -9 -66 -2 -148 13 -172 11 -16 12 -24 3 -29 -7 -4 -8 -3 -4 4 4
7 3 12 -3 12 -19 0 -33 72 -29 141 3 38 3 69 1 69 -8 0 -33 -70 -38 -106 -2
-20 -9 -42 -16 -50 -6 -7 -8 -18 -4 -24 8 -14 -12 -66 -38 -100 -21 -27 -21
-27 12 43 17 37 20 51 11 62 -7 8 -9 24 -5 37 7 21 7 21 -10 4 -11 -10 -18
-31 -17 -49 0 -18 -4 -51 -10 -74 -8 -33 -8 -46 2 -58 8 -9 8 -15 2 -15 -6 0
-14 5 -18 11 -4 7 -17 -9 -30 -36 -13 -26 -21 -51 -18 -57 4 -6 13 4 21 22 7
18 16 31 19 27 3 -3 1 -13 -4 -24 -27 -51 -31 -78 -29 -208 2 -110 5 -145 18
-162 9 -13 18 -21 21 -18 2 3 24 -19 49 -48 72 -86 143 -157 156 -157 6 0 22
-10 35 -22 13 -13 16 -17 6 -9 -16 13 -18 12 -18 -8 0 -12 -4 -20 -9 -17 -5 3
-3 -13 4 -37 6 -23 10 -64 8 -91 -5 -60 3 -88 17 -66 6 8 10 31 11 50 0 19 7
53 15 75 l14 40 -5 -55 c-3 -30 -12 -80 -21 -110 -19 -68 -36 -171 -38 -228
-1 -37 -8 -50 -49 -92 -27 -28 -54 -50 -60 -50 -6 0 -19 -7 -29 -17 -10 -9
-21 -14 -24 -11 -3 4 15 20 40 37 76 53 97 89 112 194 8 50 16 102 19 114 3
13 1 23 -5 23 -5 0 -10 -9 -10 -20 0 -11 -4 -20 -10 -20 -5 0 -7 -7 -4 -15 7
-18 -10 -20 -28 -3 -7 7 -27 18 -45 24 -40 15 -39 4 8 -81 19 -35 26 -54 16
-46 -9 7 -17 19 -17 25 0 6 -25 37 -54 69 -29 32 -69 85 -87 118 -19 33 -48
79 -65 102 -17 23 -39 57 -48 75 l-17 33 28 -6 c22 -5 25 -4 11 4 -9 6 -36 39
-61 74 -69 96 -69 96 -102 32 -22 -44 -30 -53 -41 -44 -18 15 -55 75 -58 94
-6 41 -65 98 -138 133 -5 2 -8 -4 -8 -12 0 -18 -49 -41 -61 -29 -12 13 -60
135 -55 140 2 3 20 -6 38 -20 l33 -25 30 24 c17 13 26 24 20 24 -6 0 -11 31
-12 69 -1 42 -13 105 -31 167 -36 119 -64 228 -69 269 -3 24 5 40 38 80 64 77
120 205 89 205 -5 0 -10 -12 -10 -27 0 -68 -107 -226 -136 -202 -8 7 -14 29
-13 53 1 33 2 36 8 16 6 -22 8 -23 14 -7 10 27 9 71 -3 103 -8 21 -6 35 10 68
11 23 20 49 20 57 0 8 4 19 10 25 5 5 10 23 12 41 1 19 7 29 14 26 14 -5 26
24 19 48 -5 13 -1 16 14 12 14 -4 21 -17 26 -51 4 -26 15 -63 26 -82 l19 -35
-7 45 c-3 25 -9 47 -14 50 -4 3 -3 28 2 57 7 36 19 61 39 82 26 26 30 37 30
87 0 43 -6 68 -25 101 -41 68 -75 169 -75 219 l0 46 44 -26 c52 -31 72 -34 36
-6 -30 24 -14 27 19 4 18 -13 25 -14 31 -4 4 6 16 10 27 8 11 -1 20 1 21 6 0
5 6 12 13 17 8 4 11 11 7 14 -15 15 -117 46 -151 46 -32 0 -38 3 -32 17 4 9
11 35 17 56 5 21 18 52 30 68 19 28 23 29 80 24 33 -3 71 -12 84 -21 23 -15
27 -14 68 9 42 23 90 35 111 28 6 -2 23 -29 38 -60z m341 -70 c26 -56 46 -105
46 -107 0 -16 -19 0 -40 34 -13 22 -28 38 -32 35 -4 -3 -5 1 -3 8 3 8 -4 40
-15 72 -41 121 -18 99 44 -42z m-797 86 c-3 -8 -6 -5 -6 6 -1 11 2 17 5 13 3
-3 4 -12 1 -19z m-249 -109 c-10 -22 -21 -39 -23 -37 -6 6 28 78 36 78 4 0 -2
-18 -13 -41z m782 -108 c0 -27 -18 3 -24 39 l-6 35 15 -30 c8 -16 14 -37 15
-44z m-394 37 c14 -13 9 -15 -46 -12 -64 3 -80 8 -80 26 0 16 108 4 126 -14z
m-419 -13 c-4 -8 -11 -15 -17 -15 -7 0 -7 6 0 21 13 23 26 19 17 -6z m-297
-429 c0 -3 -14 -12 -32 -20 -31 -16 -31 -16 -13 4 16 18 45 28 45 16z m181
-70 c-24 -24 -41 -48 -37 -54 7 -11 -28 -44 -71 -66 -40 -20 -58 -20 -20 0 16
9 25 20 20 26 -5 9 -8 9 -11 0 -2 -7 -8 -10 -13 -6 -5 3 -9 1 -9 -5 0 -6 -6
-8 -14 -5 -8 3 -24 0 -36 -6 -12 -6 -24 -10 -26 -7 -2 2 28 20 68 40 40 20 98
56 128 81 70 57 75 57 21 2z m386 7 c-3 -10 -5 -4 -5 12 0 17 2 24 5 18 2 -7
2 -21 0 -30z m1193 -7 c0 -6 -4 -5 -9 3 -6 9 -11 10 -15 2 -11 -18 -25 -3 -19
19 5 20 7 20 24 4 11 -9 19 -22 19 -28z m-1150 -28 c0 -18 -2 -20 -9 -8 -6 8
-7 18 -5 22 9 14 14 9 14 -14z m-860 2 c0 -5 -5 -10 -11 -10 -5 0 -7 5 -4 10
3 6 8 10 11 10 2 0 4 -4 4 -10z m1826 -77 c22 -51 26 -39 5 17 -22 57 -9 58
15 2 21 -50 16 -155 -9 -190 -18 -26 -18 -23 0 28 3 8 -4 5 -16 -7 -12 -13
-26 -23 -31 -23 -4 0 5 13 21 29 45 45 39 92 -24 191 -28 45 -28 45 -2 15 15
-16 33 -45 41 -62z m-1676 43 c0 -10 -7 -12 -22 -8 -21 5 -21 6 -2 13 10 4 20
8 22 8 1 1 2 -5 2 -13z m-190 1 c0 -2 -12 -14 -27 -28 l-28 -24 24 28 c23 25
31 32 31 24z m230 -6 c0 -5 -7 -11 -14 -14 -10 -4 -13 -1 -9 9 6 15 23 19 23
5z m-40 -45 c0 -3 -4 -8 -10 -11 -5 -3 -10 -1 -10 4 0 6 5 11 10 11 6 0 10 -2
10 -4z m21 -31 c-18 -8 -43 -15 -55 -14 -14 1 -7 6 19 14 54 18 78 18 36 0z
m94 -4 c-6 -5 -21 -12 -35 -16 -22 -7 -23 -6 -11 9 7 9 23 16 34 16 13 0 17
-4 12 -9z m175 -15 c0 -2 -8 -10 -17 -17 -16 -13 -17 -12 -4 4 13 16 21 21 21
13z m1505 -60 c14 -5 14 -4 0 16 -25 37 -17 42 12 6 15 -18 33 -37 40 -41 7
-4 13 -14 13 -22 0 -7 8 -16 18 -19 10 -4 27 -14 38 -24 40 -37 84 -63 95 -56
7 4 9 3 5 -4 -3 -6 4 -20 16 -31 12 -12 18 -21 12 -21 -5 0 -22 -11 -38 -25
l-28 -24 -52 26 c-40 20 -114 66 -144 89 -2 1 2 12 8 24 8 15 8 20 1 16 -7 -4
-11 1 -11 13 0 10 -6 21 -12 24 -10 3 -10 7 0 19 10 12 9 21 -3 44 -8 16 -15
34 -15 39 1 6 7 -2 15 -16 8 -15 21 -29 30 -33z m-25 -16 c0 -5 -2 -10 -4 -10
-3 0 -8 5 -11 10 -3 6 -1 10 4 10 6 0 11 -4 11 -10z m-1501 -27 c-27 -36 -73
-83 -82 -83 -4 0 13 22 40 50 49 51 66 64 42 33z m1296 -42 c3 -5 1 -12 -5
-16 -5 -3 -10 1 -10 9 0 18 6 21 15 7z m230 -89 c-3 -3 -11 0 -18 7 -9 10 -8
11 6 5 10 -3 15 -9 12 -12z m-245 -27 c0 -5 -5 -3 -10 5 -5 8 -10 20 -10 25 0
6 5 3 10 -5 5 -8 10 -19 10 -25z m520 -15 c-8 -5 -19 -10 -25 -10 -5 0 -3 5 5
10 8 5 20 10 25 10 6 0 3 -5 -5 -10z m-59 -57 c13 -16 12 -17 -3 -4 -17 13
-22 21 -14 21 2 0 10 -8 17 -17z m-507 -27 c-3 -15 -8 -25 -11 -23 -2 3 -1 17
3 31 3 15 8 25 11 23 2 -3 1 -17 -3 -31z m-1003 -49 c-10 -9 -11 -8 -5 6 3 10
9 15 12 12 3 -3 0 -11 -7 -18z m-416 -38 c11 -17 -1 -21 -15 -4 -8 9 -8 15 -2
15 6 0 14 -5 17 -11z m2090 -28 c-3 -6 -11 -11 -17 -11 -6 0 -6 6 2 15 14 17
26 13 15 -4z m-816 -63 c12 -20 12 -20 -18 1 -36 26 -38 31 -13 24 10 -2 24
-14 31 -25z m16 22 c3 -5 1 -10 -4 -10 -6 0 -11 5 -11 10 0 6 2 10 4 10 3 0 8
-4 11 -10z m16 -133 c-10 -9 -11 -8 -5 6 3 10 9 15 12 12 3 -3 0 -11 -7 -18z
m-1392 -80 c-1 -31 -1 -31 -9 -7 -11 36 -11 52 0 45 6 -3 10 -21 9 -38z m1372
16 c-12 -20 -14 -14 -5 12 4 9 9 14 11 11 3 -2 0 -13 -6 -23z m319 -155 c-6
-13 -13 -31 -16 -41 -4 -10 -14 -17 -23 -15 -9 1 -22 -1 -28 -5 -18 -11 -16
-1 4 31 32 51 83 76 63 30z m-100 -118 c0 -5 -5 -10 -11 -10 -5 0 -7 5 -4 10
3 6 8 10 11 10 2 0 4 -4 4 -10z m-15 -71 c-4 -5 -1 -9 5 -9 6 0 9 -4 6 -8 -3
-5 4 -19 15 -31 20 -21 20 -23 3 -42 -9 -10 -22 -19 -27 -19 -6 0 -7 3 -4 7 4
3 1 16 -8 29 -15 23 -10 98 6 88 5 -3 7 -10 4 -15z m-1318 -112 c3 -15 19 -39
36 -53 16 -13 27 -28 23 -31 -3 -4 -18 4 -32 18 -26 23 -45 59 -58 109 -7 24
-7 25 9 5 9 -11 19 -32 22 -48z m1293 -2 c-12 -15 -30 -12 -30 6 0 5 10 9 21
9 18 0 19 -2 9 -15z m-660 -65 c-6 -11 -13 -20 -16 -20 -2 0 0 9 6 20 6 11 13
20 16 20 2 0 0 -9 -6 -20z m-16 -63 c-3 -9 -10 -17 -16 -17 -5 0 -6 -4 -3 -10
3 -5 1 -10 -4 -10 -6 0 -11 -6 -11 -13 0 -8 -12 -32 -27 -54 -33 -48 -88 -114
-77 -93 14 27 68 105 77 111 5 3 7 8 5 11 -7 10 46 108 54 100 5 -5 6 -16 2
-25z m994 -17 c16 0 52 -41 46 -52 -3 -5 0 -16 7 -24 6 -8 9 -17 6 -21 -4 -3
3 -19 14 -34 27 -38 19 -37 -23 4 -19 17 -49 45 -67 61 -39 35 -53 66 -38 84
8 10 13 9 27 -3 9 -8 22 -15 28 -15z m-274 -21 c-3 -5 0 -9 5 -9 6 0 11 -9 11
-20 0 -11 -4 -20 -10 -20 -5 0 -10 8 -10 17 0 9 -7 24 -16 34 -15 16 -14 17 5
12 11 -3 18 -9 15 -14z m-571 -57 c-4 -17 -2 -23 6 -18 14 9 15 -26 0 -41 -15
-15 -1 -73 17 -73 25 0 15 -45 -25 -107 -41 -64 -62 -84 -69 -65 -6 19 -79 35
-101 22 -34 -18 -33 -11 7 38 22 26 42 56 44 67 2 11 9 19 15 18 10 -2 83 131
83 151 0 4 -42 -33 -92 -83 -51 -49 -95 -88 -97 -85 -2 2 4 13 14 24 14 15 15
23 6 33 -14 18 21 52 44 43 11 -4 27 5 45 23 16 16 36 31 45 35 9 3 13 11 10
16 -4 6 -3 10 2 9 22 -4 32 2 27 16 -5 11 -2 13 10 9 11 -4 14 -13 9 -32z
m571 -47 c3 -8 1 -15 -4 -15 -6 0 -10 7 -10 15 0 8 2 15 4 15 2 0 6 -7 10 -15z
m-753 -28 c-13 -13 -26 -3 -16 12 3 6 11 8 17 5 6 -4 6 -10 -1 -17z m747 -6
c10 -6 10 -10 -3 -21 -8 -7 -15 -11 -16 -9 -8 42 -6 46 19 30z m-1853 -61 c8
-13 -5 -13 -25 0 -13 8 -13 10 2 10 9 0 20 -4 23 -10z m995 6 c0 -3 -38 -30
-85 -61 -47 -31 -108 -76 -136 -100 -80 -72 -71 -51 14 30 53 51 85 75 102 75
13 0 28 6 32 13 4 6 22 20 38 29 33 19 35 20 35 14z m-250 -46 c0 -5 -4 -10
-10 -10 -5 0 -10 5 -10 10 0 6 5 10 10 10 6 0 10 -4 10 -10z m908 -156 c-4 -3
-12 5 -18 18 -12 22 -12 22 6 6 10 -10 15 -20 12 -24z m-638 -7 c0 -2 -10 -12
-22 -23 l-23 -19 19 23 c18 21 26 27 26 19z m223 -59 c-4 -13 -14 -34 -23 -48
-10 -14 -25 -42 -33 -62 -9 -21 -21 -38 -28 -38 -7 0 -9 -3 -6 -7 9 -8 -22
-43 -38 -43 -6 0 -22 -11 -35 -25 -19 -21 -21 -27 -10 -40 7 -9 19 -14 27 -11
7 3 13 4 13 2 0 -8 -39 -47 -47 -47 -4 1 -16 -5 -25 -13 -14 -13 -18 -12 -32
3 -20 23 -20 30 3 55 10 12 36 54 56 93 46 86 84 135 138 174 22 16 41 29 43
29 1 0 0 -10 -3 -22z m-938 -108 c-3 -5 -11 -10 -16 -10 -6 0 -7 5 -4 10 3 6
11 10 16 10 6 0 7 -4 4 -10z m1165 -10 c0 -5 -4 -10 -9 -10 -5 0 -16 -7 -24
-15 -13 -13 -16 -13 -21 1 -4 9 2 18 17 24 30 12 37 12 37 0z m-76 -52 c-3 -4
-11 -5 -20 -1 -11 4 -12 8 -3 20 10 11 14 11 20 1 4 -6 6 -15 3 -20z m-83 -41
c-6 -8 -8 -17 -5 -20 4 -4 -7 -19 -24 -35 -19 -17 -33 -25 -36 -18 -2 6 -5 3
-5 -6 -1 -10 -4 -18 -8 -18 -5 0 -13 -11 -19 -23 -8 -18 -7 -26 3 -35 15 -15
17 -32 3 -32 -5 0 -10 -4 -10 -10 0 -5 7 -10 15 -10 8 0 15 -9 15 -20 0 -11 4
-20 10 -20 5 0 7 -7 4 -15 -4 -8 -16 -15 -28 -15 -14 0 -22 -6 -22 -18 0 -20
26 -25 39 -8 6 7 7 6 4 -4 -5 -19 -63 -26 -83 -9 -8 6 -14 7 -14 1 0 -5 13
-15 30 -22 16 -7 27 -16 24 -21 -3 -5 -1 -9 5 -9 14 0 7 -31 -10 -40 -8 -4
-52 -10 -99 -14 -47 -4 -128 -13 -180 -20 -52 -7 -98 -11 -102 -9 -4 2 -4 11
-1 20 5 11 3 14 -6 8 -7 -4 -5 4 4 19 22 33 67 66 91 66 9 0 15 3 11 6 -6 7
29 38 76 67 15 10 27 24 27 32 0 8 7 15 15 15 8 0 15 7 15 15 0 8 4 15 8 15 5
0 18 9 30 20 12 12 22 17 22 13 0 -4 13 6 28 22 42 44 96 90 104 88 4 -2 20
11 37 27 29 30 53 42 32 17z m-1765 -12 c-3 -8 -1 -15 5 -15 6 0 9 -6 7 -12
-6 -18 -33 -16 -34 2 0 15 14 40 23 40 3 0 3 -7 -1 -15z m1544 -25 c0 -5 -2
-10 -4 -10 -3 0 -8 5 -11 10 -3 6 -1 10 4 10 6 0 11 -4 11 -10z m178 -83 c2
-12 -1 -15 -12 -11 -10 4 -16 1 -16 -9 0 -8 7 -17 15 -21 8 -3 15 -11 15 -18
0 -7 -12 0 -27 16 -19 19 -24 30 -15 33 6 3 12 11 12 20 0 20 24 11 28 -10z
m-294 -34 c4 -10 4 -14 0 -10 -4 4 -14 1 -22 -6 -13 -11 -14 -9 -1 11 17 26
15 26 23 5z m326 7 c0 -5 -2 -10 -4 -10 -3 0 -8 5 -11 10 -3 6 -1 10 4 10 6 0
11 -4 11 -10z m-1199 -37 c13 -16 12 -17 -3 -4 -17 13 -22 21 -14 21 2 0 10
-8 17 -17z m1174 -53 c3 -6 -1 -7 -9 -4 -18 7 -21 14 -7 14 6 0 13 -4 16 -10z
m8 -75 c-3 -9 -8 -14 -10 -11 -3 3 -2 9 2 15 9 16 15 13 8 -4z m-2513 -60 c7
-9 8 -15 2 -15 -5 0 -12 7 -16 15 -3 8 -4 15 -2 15 2 0 9 -7 16 -15z m1899
-18 c-9 -7 -14 -17 -12 -23 5 -15 -52 -106 -75 -118 -15 -9 -16 -8 -2 10 8 10
21 25 28 32 13 14 7 36 -7 27 -12 -7 -44 32 -36 44 3 6 16 11 28 11 12 1 36 7
52 15 38 17 44 18 24 2z m591 9 c0 -3 -4 -8 -10 -11 -5 -3 -10 -1 -10 4 0 6 5
11 10 11 6 0 10 -2 10 -4z m-2257 -76 c-3 -11 -10 -20 -15 -20 -5 0 -6 5 -3
10 3 6 0 10 -7 10 -9 0 -9 3 2 10 23 15 29 12 23 -10z m1797 4 c0 -2 -9 -4
-21 -4 -11 0 -18 4 -14 10 5 8 35 3 35 -6z m-1073 -14 c14 -11 20 -20 12 -20
-15 1 -49 24 -49 34 0 11 11 7 37 -14z m293 -5 c0 -16 -34 -38 -44 -28 -4 4
-9 -3 -12 -15 -7 -25 -35 -36 -65 -27 -19 6 -18 8 12 31 18 13 38 24 45 24 6
0 14 7 18 15 7 19 46 20 46 0z m-1105 -16 c-4 -5 -13 -9 -21 -9 -12 0 -12 2
-2 14 14 15 32 11 23 -5z m1580 -14 c0 -17 -8 -42 -18 -57 -10 -16 -14 -28 -8
-28 6 0 11 5 11 11 0 6 7 9 15 5 9 -3 15 0 15 9 0 8 5 15 12 15 6 0 4 7 -5 18
-20 22 -12 35 13 22 16 -8 16 -14 5 -46 -10 -29 -25 -44 -71 -70 -67 -38 -74
-40 -74 -18 0 8 4 13 9 9 5 -3 12 -1 16 5 3 5 3 10 -2 10 -15 0 -32 49 -19 54
7 3 6 8 -4 16 -13 10 -13 11 0 8 8 -3 17 -15 21 -29 5 -21 7 -19 14 16 10 52
32 87 53 83 11 -2 17 -13 17 -33z m-1450 15 c-3 -5 -12 -10 -18 -10 -7 0 -6 4
3 10 19 12 23 12 15 0z m1519 -71 c-3 -5 -10 -7 -15 -3 -5 3 -7 10 -3 15 3 5
10 7 15 3 5 -3 7 -10 3 -15z m-1614 -9 c0 -5 -5 -10 -11 -10 -5 0 -7 5 -4 10
3 6 8 10 11 10 2 0 4 -4 4 -10z m90 -1 c0 -7 -10 -9 -24 -5 -14 3 -28 2 -31
-4 -4 -6 1 -7 12 -3 10 3 15 3 11 -2 -4 -4 -3 -17 3 -29 10 -20 9 -20 -5 -2
-13 16 -17 17 -30 3 -8 -8 -13 -17 -10 -20 3 -3 -4 -3 -15 0 -21 5 -23 13 -4
16 14 2 31 22 26 31 -3 4 1 12 8 17 20 12 59 11 59 -2z m-135 -9 c-27 -11 -57
-12 -51 -2 3 5 20 9 38 9 27 1 29 -1 13 -7z m95 -54 c0 -3 -4 -8 -10 -11 -5
-3 -10 -1 -10 4 0 6 5 11 10 11 6 0 10 -2 10 -4z m1330 0 c0 -2 -7 -7 -16 -10
-8 -3 -12 -2 -9 4 6 10 25 14 25 6z m-1499 -33 c8 -2 21 3 28 11 17 20 28 20
47 1 10 -9 25 -12 44 -8 19 3 30 1 30 -6 0 -6 -17 -11 -40 -11 -22 0 -40 5
-40 10 0 6 -5 10 -11 10 -6 0 -9 -6 -6 -14 8 -21 -21 -25 -66 -10 -20 7 -44
11 -51 8 -8 -3 -17 -1 -21 5 -3 6 -1 11 5 11 6 0 9 4 5 9 -3 6 8 6 27 0 18 -6
40 -13 49 -16z m119 23 c0 -11 -19 -15 -25 -6 -3 5 1 10 9 10 9 0 16 -2 16 -4z
m-16 -62 c3 -7 -2 -10 -15 -7 -22 6 -26 20 -4 20 8 0 16 -6 19 -13z m-114 -74
c0 -5 -4 -10 -10 -10 -5 0 -10 5 -10 10 0 6 5 10 10 10 6 0 10 -4 10 -10z"/><path d="M2620 3440 c20 -13 33 -13 25 0 -3 6 -14 10 -23 10 -15 0 -15 -2 -2
-10z"/><path d="M2651 2887 c-13 -21 -12 -21 5 -5 10 10 16 20 13 22 -3 3 -11 -5 -18
-17z"/><path d="M2157 2783 c-11 -19 -17 -72 -9 -77 5 -3 12 13 15 37 6 41 4 56 -6
40z"/><path d="M2461 2723 c7 -12 15 -20 18 -17 3 2 -3 12 -13 22 -17 16 -18 16 -5
-5z"/><path d="M2549 2563 c-13 -16 -12 -17 4 -4 16 13 21 21 13 21 -2 0 -10 -8 -17
-17z"/><path d="M2117 2564 c-4 -4 -7 -14 -7 -23 0 -11 3 -12 11 -4 6 6 10 16 7 23
-2 6 -7 8 -11 4z"/><path d="M2728 2480 c-10 -46 -16 -85 -15 -86 1 -1 11 21 22 49 12 33 18 65
15 86 -4 30 -7 23 -22 -49z"/><path d="M2370 2544 c0 -10 50 -108 61 -118 6 -6 9 -6 9 1 0 7 -4 14 -10 18
-5 3 -7 12 -4 19 3 7 -1 16 -9 19 -9 3 -18 19 -22 36 -4 17 -11 31 -16 31 -5
0 -9 -3 -9 -6z"/><path d="M2792 2495 c-6 -14 -7 -25 -2 -25 9 0 25 39 18 46 -3 2 -10 -7 -16
-21z"/><path d="M2456 2367 c9 -26 20 -50 25 -53 11 -6 -19 76 -33 91 -4 5 -1 -12 8
-38z"/><path d="M2234 2109 c2 -9 8 -38 12 -65 4 -27 15 -67 25 -89 13 -29 17 -32 13
-12 -5 22 -3 27 14 27 12 0 28 -10 36 -22 9 -12 18 -19 21 -16 3 2 -4 16 -16
29 -41 47 -74 92 -92 128 -9 20 -15 29 -13 20z"/><path d="M2236 1904 c-11 -8 -16 -14 -11 -14 5 0 4 -5 -3 -12 -7 -7 -12 -18
-12 -26 0 -8 11 2 25 23 29 42 29 50 1 29z"/><path d="M2530 1730 c0 -5 7 -10 16 -10 8 0 12 5 9 10 -3 6 -10 10 -16 10 -5
0 -9 -4 -9 -10z"/><path d="M2405 1691 c8 -17 19 -33 25 -36 5 -3 1 10 -11 29 -25 43 -36 48 -14
7z"/><path d="M2769 1614 c-23 -25 -23 -26 -2 -13 13 7 25 19 27 26 8 19 2 16 -25
-13z"/><path d="M2641 1596 c-9 -10 -6 -15 11 -19 12 -3 28 -3 35 2 11 5 8 10 -11 19
-19 8 -27 8 -35 -2z"/><path d="M1744 2916 c-10 -8 -16 -17 -13 -20 3 -4 17 2 30 13 27 23 13 28 -17
7z"/><path d="M3345 2630 c3 -5 8 -10 11 -10 2 0 4 5 4 10 0 6 -5 10 -11 10 -5 0
-7 -4 -4 -10z"/><path d="M3485 2600 c-3 -5 -1 -10 4 -10 6 0 11 5 11 10 0 6 -2 10 -4 10 -3 0
-8 -4 -11 -10z"/><path d="M3100 1726 c0 -2 8 -10 18 -17 15 -13 16 -12 3 4 -13 16 -21 21 -21
13z"/><path d="M2426 903 c-6 -14 -5 -15 5 -6 7 7 10 15 7 18 -3 3 -9 -2 -12 -12z"/><path d="M2447 603 c-10 -9 -9 -23 2 -23 5 0 11 7 15 15 5 15 -5 20 -17 8z"/><path d="M2440 561 c0 -6 4 -13 10 -16 6 -3 7 1 4 9 -7 18 -14 21 -14 7z"/><path d="M2205 470 c3 -5 11 -10 16 -10 6 0 7 5 4 10 -3 6 -11 10 -16 10 -6 0
-7 -4 -4 -10z"/><path d="M1700 220 c0 -5 5 -10 11 -10 5 0 7 5 4 10 -3 6 -8 10 -11 10 -2 0
-4 -4 -4 -10z"/><path d="M1495 3960 c3 -5 11 -10 16 -10 6 0 7 5 4 10 -3 6 -11 10 -16 10 -6
0 -7 -4 -4 -10z"/><path d="M1552 3938 c3 -16 1 -31 -4 -34 -4 -3 -8 -21 -8 -40 0 -21 4 -33 10
-29 6 3 10 18 10 32 0 29 25 63 43 59 7 -2 8 -1 4 2 -4 2 -3 10 4 18 6 8 10
14 8 15 -2 0 -19 2 -37 4 -32 3 -34 1 -30 -27z m38 8 c0 -3 -4 -8 -10 -11 -5
-3 -10 -1 -10 4 0 6 5 11 10 11 6 0 10 -2 10 -4z"/><path d="M1499 3937 c-4 -37 0 -87 7 -87 10 0 10 77 0 87 -3 3 -6 3 -7 0z"/><path d="M1590 3870 c0 -16 5 -30 10 -30 6 0 10 14 10 30 0 17 -4 30 -10 30
-5 0 -10 -13 -10 -30z"/><path d="M1500 3796 c-5 -13 -5 -45 -1 -72 l9 -49 1 53 c0 29 6 62 11 73 8 13
7 19 0 19 -6 0 -15 -11 -20 -24z"/><path d="M1580 3801 c0 -25 6 -27 13 -6 4 8 2 17 -3 20 -6 4 -10 -3 -10 -14z"/><path d="M1533 3760 c-1 -11 2 -18 8 -15 11 7 12 35 1 35 -4 0 -8 -9 -9 -20z"/><path d="M1560 3742 c0 -10 -8 -29 -17 -42 l-16 -25 24 22 c24 22 25 22 37 2
7 -11 17 -17 23 -13 6 4 2 12 -10 21 -12 8 -21 23 -21 34 0 10 -4 19 -10 19
-5 0 -10 -8 -10 -18z"/><path d="M770 3637 c-131 -65 -157 -108 -37 -60 48 19 67 32 67 44 0 10 8 23
18 28 32 19 -3 10 -48 -12z"/><path d="M1505 3620 c-11 -13 -20 -41 -23 -75 -4 -52 -3 -55 22 -65 75 -28
121 1 110 69 -7 42 -17 52 -27 27 -3 -8 -1 -17 6 -20 8 -3 8 -5 1 -5 -6 -1 -9
-12 -6 -26 2 -14 0 -25 -6 -25 -15 0 -21 22 -10 43 8 16 7 17 -11 5 -12 -7
-21 -21 -21 -30 0 -10 -4 -18 -10 -18 -13 0 -13 37 0 45 6 4 6 15 0 31 -12 31
-12 34 0 34 5 0 12 -11 16 -25 3 -14 10 -22 16 -19 5 3 4 11 -3 20 -12 15 -7
18 24 14 13 -1 18 4 15 17 -5 28 -69 30 -93 3z"/><path d="M604 3535 c-25 -19 -14 -19 22 0 16 8 22 15 13 15 -8 0 -24 -7 -35
-15z"/><path d="M549 3503 c-13 -16 -12 -17 4 -4 9 7 17 15 17 17 0 8 -8 3 -21 -13z"/><path d="M770 3484 c0 -8 12 -30 27 -49 22 -28 27 -42 25 -82 -2 -26 -6 -56
-9 -67 -3 -12 -1 -16 6 -12 21 14 11 -6 -14 -26 -14 -11 -25 -26 -25 -35 0
-12 -3 -13 -14 -4 -11 10 -26 7 -68 -10 -97 -41 -99 -62 -7 -95 27 -10 49 -20
49 -23 -1 -4 -30 -35 -65 -71 -36 -36 -65 -73 -65 -82 0 -23 35 -58 59 -58 10
0 39 16 65 35 l46 36 0 -31 c0 -16 -8 -38 -18 -48 -30 -30 -171 -84 -204 -80
-24 4 -32 0 -41 -19 -9 -21 -6 -28 28 -63 l39 -40 -29 0 c-49 0 -127 -44 -187
-105 -67 -68 -76 -105 -33 -145 35 -33 68 -28 182 24 55 25 103 46 105 46 3 0
28 -46 56 -102 34 -69 66 -119 98 -151 91 -92 109 -52 98 217 l-6 159 24 -6
c13 -4 50 -9 81 -13 40 -5 57 -11 53 -19 -5 -15 250 -95 300 -95 46 0 130 47
168 93 33 42 100 157 94 163 -6 5 -69 -13 -140 -40 -70 -26 -227 -47 -308 -41
-25 2 -98 7 -162 10 -65 4 -118 10 -119 13 -12 101 -6 116 60 145 62 27 147
42 156 27 9 -15 78 -12 100 4 16 12 17 18 8 39 -6 13 -23 27 -38 31 -35 9 -95
48 -95 62 0 6 6 16 13 22 7 6 27 31 45 55 l32 45 -66 28 -65 27 -59 -41 c-32
-23 -62 -42 -65 -42 -4 0 -5 15 -3 32 3 29 10 36 66 65 36 19 79 33 98 33 27
0 37 5 46 24 16 36 4 54 -48 78 -38 16 -48 18 -55 7 -4 -8 -14 -14 -21 -15
-33 -3 -39 -5 -35 -11 3 -5 -7 -8 -23 -9 l-27 -1 4 76 c4 58 1 81 -10 96 l-16
20 2 -20 c1 -11 6 -23 10 -26 4 -3 0 -12 -9 -20 -16 -12 -17 -12 -11 4 4 11
-1 25 -13 37 -24 24 -26 34 -5 26 31 -12 13 6 -20 20 -43 18 -45 18 -45 -2z
m96 -133 c-8 -19 -12 -21 -14 -8 -2 9 -8 17 -13 17 -6 0 -8 4 -4 9 3 6 14 9
24 8 16 -1 17 -4 7 -26z m-22 -26 c3 -8 1 -15 -4 -15 -6 0 -10 7 -10 15 0 8 2
15 4 15 2 0 6 -7 10 -15z m22 -54 c0 -11 -5 -17 -13 -14 -10 4 -11 9 -2 19 15
18 15 18 15 -5z m133 12 c-4 -22 2 -43 12 -43 5 0 7 5 4 10 -9 15 1 12 14 -3
8 -11 7 -14 -7 -14 -22 0 -44 16 -36 28 3 5 -1 9 -8 9 -9 0 -9 3 2 10 18 12
20 12 19 3z m-199 -218 c0 -33 -33 -65 -67 -65 -27 0 -27 0 17 45 24 25 45 45
47 45 2 0 3 -11 3 -25z m128 -52 c-41 -57 -61 -67 -56 -27 2 19 14 36 37 51
51 35 56 28 19 -24z m82 -84 c0 -10 -42 -29 -49 -23 -2 2 1 10 7 17 7 8 9 16
6 20 -3 3 3 3 15 0 12 -3 21 -9 21 -14z m-285 -235 c-20 -16 -43 -24 -69 -24
-22 0 -37 2 -35 4 9 9 124 53 129 49 3 -3 -8 -16 -25 -29z m-181 -68 c-17 -13
-13 -14 39 -9 31 3 57 3 57 0 0 -10 -71 -44 -159 -76 l-81 -30 0 23 c0 29 14
41 88 77 63 31 86 37 56 15z m230 -43 c-3 -16 -11 -59 -18 -98 -10 -59 -15
-70 -34 -73 -16 -3 -28 8 -51 44 l-29 48 40 47 c42 50 51 57 80 58 14 1 16 -5
12 -26z m-164 -53 c0 -5 -4 -10 -10 -10 -5 0 -10 5 -10 10 0 6 5 10 10 10 6 0
10 -4 10 -10z m-180 -115 c0 -9 -9 -15 -21 -15 -18 0 -19 2 -9 15 7 8 16 15
21 15 5 0 9 -7 9 -15z"/><path d="M366 3405 c-11 -8 -15 -15 -10 -15 6 0 19 7 30 15 10 8 15 14 9 14
-5 0 -19 -6 -29 -14z"/><path d="M227 3313 c-59 -40 -80 -67 -26 -36 34 20 97 72 88 73 -3 0 -31 -17
-62 -37z"/><path d="M1777 3133 c-4 -3 -7 -11 -7 -17 0 -6 5 -5 12 2 6 6 9 14 7 17 -3 3
-9 2 -12 -2z"/><path d="M3380 2946 c0 -2 8 -10 18 -17 15 -13 16 -12 3 4 -13 16 -21 21 -21
13z"/><path d="M3455 2940 c-3 -5 -1 -10 4 -10 6 0 11 5 11 10 0 6 -2 10 -4 10 -3 0
-8 -4 -11 -10z"/><path d="M1279 2913 c-13 -16 -12 -17 4 -4 9 7 17 15 17 17 0 8 -8 3 -21 -13z"/><path d="M3573 2904 c15 -16 77 -30 77 -18 0 5 -30 17 -70 29 -24 7 -24 6 -7
-11z"/><path d="M3704 2851 c11 -12 26 -20 35 -19 9 2 15 -3 13 -10 -1 -8 2 -11 9 -7
14 9 -4 26 -46 44 l-30 13 19 -21z"/><path d="M1081 2389 c-12 -10 -20 -23 -16 -29 3 -5 -1 -10 -10 -10 -15 0 -41
-48 -30 -58 3 -3 5 0 5 7 0 7 5 9 11 6 6 -4 8 -13 5 -21 -4 -11 -2 -12 14 -1
11 6 20 15 20 19 0 4 20 21 45 39 40 29 53 58 19 45 -8 -3 -14 -1 -14 3 0 18
-26 18 -49 0z"/><path d="M3800 2380 c0 -5 5 -10 11 -10 5 0 7 5 4 10 -3 6 -8 10 -11 10 -2 0
-4 -4 -4 -10z"/><path d="M435 2249 c-10 -15 3 -25 16 -12 7 7 7 13 1 17 -6 3 -14 1 -17 -5z"/><path d="M476 2203 c2 -22 -1 -33 -13 -37 -17 -7 -42 19 -43 44 0 13 -1 13
-10 0 -14 -22 -12 -60 4 -60 16 0 28 -48 13 -53 -7 -2 -7 -11 -2 -23 17 -40
44 -213 45 -283 0 -44 0 -44 20 -26 11 10 23 15 27 12 3 -4 3 -7 -2 -7 -4 0
-2 -7 5 -15 11 -13 8 -15 -19 -15 -21 0 -31 -5 -31 -15 0 -8 -11 -25 -25 -37
-14 -12 -23 -28 -21 -35 3 -7 -17 -31 -46 -53 -27 -22 -59 -57 -69 -77 l-19
-37 26 -26 c26 -24 27 -22 8 24 -7 18 22 46 50 46 24 0 48 -22 59 -52 4 -12 2
-15 -9 -11 -20 8 -17 -11 7 -38 18 -21 20 -22 14 -4 -5 16 -4 18 6 8 10 -10 9
-19 -8 -41 -19 -26 -20 -29 -4 -41 11 -8 11 -9 1 -5 -9 4 -12 3 -7 -2 5 -5 14
-9 20 -9 6 0 22 -15 34 -34 13 -19 23 -29 23 -22 0 7 5 9 10 6 6 -4 10 -12 8
-18 -3 -19 13 -76 23 -82 5 -4 6 14 2 41 -4 34 -3 45 5 40 19 -11 14 5 -5 20
-16 12 -16 13 -2 14 22 0 27 -14 35 -114 4 -47 11 -86 16 -86 6 0 7 36 3 94
-6 80 -5 97 10 120 10 15 19 25 21 23 2 -1 -3 -27 -11 -57 -11 -43 -12 -57 -2
-67 7 -7 18 -9 25 -4 11 6 11 17 3 46 -9 32 -7 46 9 83 21 48 26 77 11 67 -16
-9 -41 37 -41 76 0 45 32 89 65 89 28 0 49 -32 42 -61 -3 -10 -3 -19 0 -19 11
0 32 35 33 53 0 11 14 32 30 47 17 15 30 33 30 40 0 6 -14 -2 -31 -19 -30 -31
-49 -39 -49 -22 0 5 -30 21 -66 37 -45 19 -69 35 -75 51 -5 13 -15 23 -22 23
-22 0 -43 31 -55 80 -19 80 -35 240 -28 285 3 27 2 45 -4 45 -6 0 -10 12 -10
26 0 14 4 23 10 19 18 -11 11 32 -9 56 l-19 24 4 -32z m1 -109 c-3 -3 -12 -4
-19 -1 -8 3 -5 6 6 6 11 1 17 -2 13 -5z m13 -114 c0 -5 -4 -10 -10 -10 -5 0
-10 5 -10 10 0 6 5 10 10 10 6 0 10 -4 10 -10z m4 -42 c3 -13 5 -48 5 -78 -1
-50 -2 -52 -9 -20 -15 69 -20 120 -11 120 5 0 11 -10 15 -22z m6 -270 c0 -19
-2 -20 -10 -8 -13 19 -13 30 0 30 6 0 10 -10 10 -22z m-7 -82 c4 4 7 0 7 -9 0
-9 -4 -19 -10 -22 -5 -3 -10 -1 -10 5 0 7 -9 23 -20 37 -11 14 -20 33 -20 42
0 9 10 -1 23 -22 13 -21 26 -35 30 -31z m27 35 c0 -6 -4 -13 -10 -16 -5 -3
-10 1 -10 9 0 9 5 16 10 16 6 0 10 -4 10 -9z m30 -107 c-8 -25 -15 -32 -20
-24 -5 7 -6 20 -2 28 3 9 1 13 -5 9 -16 -10 -21 14 -9 44 l10 27 19 -24 c16
-21 17 -29 7 -60z m30 72 c0 -3 -4 -8 -10 -11 -5 -3 -10 -1 -10 4 0 6 5 11 10
11 6 0 10 -2 10 -4z m-176 -21 c25 -19 9 -19 -24 0 -14 8 -19 14 -10 14 8 0
24 -6 34 -14z m79 -74 c28 -48 12 -36 -24 17 -17 26 -23 39 -13 30 11 -9 27
-30 37 -47z m28 -158 l24 -27 -32 23 c-33 23 -40 31 -25 31 5 0 19 -12 33 -27z"/><path d="M1610 2139 c0 -5 5 -7 10 -4 6 3 10 8 10 11 0 2 -4 4 -10 4 -5 0 -10
-5 -10 -11z"/><path d="M1584 2098 l-19 -23 23 19 c21 18 27 26 19 26 -2 0 -12 -10 -23 -22z"/><path d="M905 1939 c-9 -17 -14 -33 -11 -36 3 -3 10 7 16 22 6 15 13 32 16 36
3 5 3 9 0 9 -3 0 -13 -14 -21 -31z"/><path d="M911 1882 c-1 -22 27 -69 46 -76 14 -6 13 -3 -4 16 -12 13 -26 34
-32 48 -5 14 -10 19 -10 12z"/><path d="M866 1855 c-9 -26 -7 -32 5 -12 6 10 9 21 6 23 -2 3 -7 -2 -11 -11z"/><path d="M1945 1642 c0 -60 1 -61 18 -43 18 18 18 20 0 62 l-19 43 1 -62z"/><path d="M1215 1480 c-3 -5 -1 -10 4 -10 6 0 11 5 11 10 0 6 -2 10 -4 10 -3 0
-8 -4 -11 -10z"/><path d="M472 1279 c14 -24 23 -50 21 -56 -3 -7 3 -13 11 -13 14 0 12 8 -9 49
-13 27 -30 53 -36 56 -6 4 0 -12 13 -36z"/><path d="M657 1203 c-12 -12 -7 -22 8 -17 8 4 15 10 15 15 0 11 -14 12 -23 2z"/><path d="M968 1173 c-9 -10 -21 -29 -27 -43 l-12 -25 21 25 c23 27 43 60 37
60 -2 0 -11 -8 -19 -17z"/><path d="M299 1137 c10 -28 31 -34 31 -9 0 11 -8 22 -19 25 -16 4 -18 1 -12
-16z"/><path d="M561 1130 c1 -8 5 -26 9 -40 l8 -25 1 25 c0 14 -4 32 -9 40 -9 13
-10 13 -9 0z"/><path d="M912 1083 c-5 -10 -17 -35 -25 -56 l-16 -37 24 17 c14 10 22 24 20
31 -3 7 0 23 6 34 6 11 8 22 6 25 -3 2 -10 -4 -15 -14z"/><path d="M877 866 c-10 -8 -15 -16 -10 -18 4 -3 16 3 26 14 20 21 10 24 -16 4z"/><path d="M284 802 c-21 -11 -24 -16 -13 -23 11 -7 11 -9 -3 -9 -9 0 -29 -11
-43 -24 -24 -23 -25 -25 -8 -34 23 -11 204 -5 217 8 6 6 36 10 68 10 45 0 58
3 58 15 0 9 -9 15 -23 15 -12 0 -34 8 -47 18 -37 26 -172 42 -206 24z"/><path d="M910 795 c-16 -19 -10 -19 26 0 25 13 26 15 8 15 -12 0 -27 -7 -34
-15z"/><path d="M910 754 c0 -8 5 -12 10 -9 6 4 8 11 5 16 -9 14 -15 11 -15 -7z"/><path d="M1206 744 c-8 -20 -4 -25 11 -16 7 4 9 13 4 21 -6 10 -10 9 -15 -5z"/><path d="M1010 720 c0 -5 5 -10 11 -10 5 0 7 5 4 10 -3 6 -8 10 -11 10 -2 0
-4 -4 -4 -10z"/></g></svg>